HIERARCHY
ROOT Hips
{
  OFFSET 53.7281 95.6246 11.2284
  CHANNELS 6 Xposition Yposition Zposition Zrotation Xrotation Yrotation
  JOINT spine
  {
    OFFSET 0 7.96568 0.458067
    CHANNELS 3 Zrotation Xrotation Yrotation
    JOINT spine1
    {
      OFFSET 0 10.2431 0
      CHANNELS 3 Zrotation Xrotation Yrotation
      JOINT spine2
      {
        OFFSET 0 9.81475 0
        CHANNELS 3 Zrotation Xrotation Yrotation
        JOINT Neck
        {
          OFFSET 0 25.1986 1.20138
          CHANNELS 3 Zrotation Xrotation Yrotation
          JOINT Head
          {
            OFFSET 0 7.61315 0
            CHANNELS 3 Zrotation Xrotation Yrotation
            End Site
            {
              OFFSET 0 18.4281 -6.07733
            }
          }
        }
        JOINT RightShoulder
        {
          OFFSET -4.1327 10.5992 -0.575451
          CHANNELS 3 Zrotation Xrotation Yrotation
          JOINT RightArm
          {
            OFFSET 0 13.9018 0
            CHANNELS 3 Zrotation Xrotation Yrotation
            JOINT RightArmRoll
            {
              OFFSET 0 7.01788 0
              CHANNELS 3 Zrotation Xrotation Yrotation
              JOINT RightForeArm
              {
                OFFSET 0 20.4406 0
                CHANNELS 3 Zrotation Xrotation Yrotation
                JOINT RightForeArmRoll
                {
                  OFFSET 0 7.87515 0
                  CHANNELS 3 Zrotation Xrotation Yrotation
                  JOINT RightHand
                  {
                    OFFSET 0 15.8037 0
                    CHANNELS 3 Zrotation Xrotation Yrotation
                    End Site
                    {
                      OFFSET 0 0 0
                    }
                  }
                }
              }
            }
          }
        }
        JOINT LeftShoulder
        {
          OFFSET 4.1327 10.5992 -0.575451
          CHANNELS 3 Zrotation Xrotation Yrotation
          JOINT LeftArm
          {
            OFFSET 0 13.9018 0
            CHANNELS 3 Zrotation Xrotation Yrotation
            JOINT LeftArmRoll
            {
              OFFSET 0 7.01788 0
              CHANNELS 3 Zrotation Xrotation Yrotation
              JOINT LeftForeArm
              {
                OFFSET 0 20.4406 0
                CHANNELS 3 Zrotation Xrotation Yrotation
                JOINT LeftForeArmRoll
                {
                  OFFSET 0 7.87515 0
                  CHANNELS 3 Zrotation Xrotation Yrotation
                  JOINT LeftHand
                  {
                    OFFSET 0 15.8037 0
                    CHANNELS 3 Zrotation Xrotation Yrotation
                    End Site
                    {
                      OFFSET 0 0 0
                    }
                  }
                }
              }
            }
          }
        }
      }
    }
  }
  JOINT RightUpLeg
  {
    OFFSET -7.06048 -1.2947 -1.0861
    CHANNELS 3 Zrotation Xrotation Yrotation
    JOINT RightUpLegRoll
    {
      OFFSET 0 18.5308 0
      CHANNELS 3 Zrotation Xrotation Yrotation
      JOINT RightLeg
      {
        OFFSET 0 -22.9476 0
        CHANNELS 3 Zrotation Xrotation Yrotation
        JOINT RightLegRoll
        {
          OFFSET 0 23.0226 0
          CHANNELS 3 Zrotation Xrotation Yrotation
          JOINT RightFoot
          {
            OFFSET 0 19.1625 0
            CHANNELS 3 Zrotation Xrotation Yrotation
            JOINT RightToeBase
            {
              OFFSET 0 16.0188 0
              CHANNELS 3 Zrotation Xrotation Yrotation
              End Site
              {
                OFFSET 0.00678979 7.75781 -0.894207
              }
            }
          }
        }
      }
    }
  }
  JOINT LeftUpLeg
  {
    OFFSET 7.06048 -1.2947 -1.0861
    CHANNELS 3 Zrotation Xrotation Yrotation
    JOINT LeftUpLegRoll
    {
      OFFSET 0 18.5309 0
      CHANNELS 3 Zrotation Xrotation Yrotation
      JOINT LeftLeg
      {
        OFFSET 0 22.9475 0
        CHANNELS 3 Zrotation Xrotation Yrotation
        JOINT LeftLegRoll
        {
          OFFSET 0 23.2355 0
          CHANNELS 3 Zrotation Xrotation Yrotation
          JOINT LeftFoot
          {
            OFFSET 0 18.9496 0
            CHANNELS 3 Zrotation Xrotation Yrotation
            JOINT LeftToeBase
            {
              OFFSET 0 16.0188 0
              CHANNELS 3 Zrotation Xrotation Yrotation
              End Site
              {
                OFFSET -0.0304289 7.75782 -0.894206
              }
            }
          }
        }
      }
    }
  }
}
MOTION
Frames: 10
Frame Time: 0.00208333
54.2898 95.6548 11.4384 1.88317 -2.02565 4.6176 -0.55895 -2.27667 -0.099738 -1.11919 -0.54998 -0.149076 -1.11761 1.09491 -0.130369 0.060759 33.4559 -2.23058 3.39124 -3.03947 -1.76527 15.3105 -15.8164 -14.0483 -13.4901 44.0457 111.223 -1.59028e-014 2.14687e-014 -1.27222e-014 -20.5841 32.2059 14.3775 -7.08252e-006 4.52286e-006 -3.0047 8.03012 -4.95137 0.69762 -15.8199 -11.7562 8.38671 13.4342 43.5083 -102.463 1.90833e-014 1.19271e-015 2.38542e-015 18.5528 30.7541 -12.2876 1.22538e-005 -2.00866e-006 3.0005 -8.0315 -4.95134 -0.697585 170.979 -1.23313 0.495655 180 7.01529e-015 178.846 177.951 8.47986 179.567 -1.96154e-006 -5.43848e-006 0.215486 -20.88 70.3765 21.7598 8.14341 25.3418 -3.34154 -175.387 -0.607378 1.63766 4.5067e-006 -1.99009e-005 -1.14337 -1.37826 -4.58873 0.085848 -4.48504e-006 -8.75613e-006 -0.0321625 18.6483 67.9372 -19.4806 -8.13649 25.2327 3.48774 
54.2517 95.6573 11.4958 1.87955 -2.02947 4.60952 -0.559105 -2.27679 -0.0995877 -1.11955 -0.550285 -0.14878 -1.11797 1.09461 -0.130071 0.0737332 33.4625 -2.22787 3.36847 -3.03634 -1.75971 15.4059 -15.7825 -13.9878 -13.2172 44.0499 110.958 -1.27222e-014 2.38542e-015 -5.56597e-015 -20.5416 32.1843 14.3354 -7.08252e-006 4.52286e-006 -3.0047 8.03012 -4.95137 0.69762 -15.9016 -11.7255 8.34215 13.2028 43.4803 -102.128 3.18055e-015 -2.5842e-015 1.59028e-015 18.4377 30.5847 -12.1603 1.22538e-005 -2.00866e-006 3.00049 -8.0315 -4.95134 -0.697585 170.982 -1.23454 0.493866 180 7.01529e-015 178.846 177.952 8.47692 179.567 -1.96154e-006 -5.43848e-006 0.215389 -20.875 70.372 21.7544 8.14343 25.342 -3.34127 -175.383 -0.610881 1.63477 4.5067e-006 -1.99009e-005 -1.14347 -1.37886 -4.59032 0.0859472 -4.48504e-006 -8.75613e-006 -0.0321897 18.648 67.9373 -19.4817 -8.13649 25.2327 3.48774 
54.2577 95.6563 11.4788 1.87894 -2.02946 4.60476 -0.559917 -2.27762 -0.100104 -1.12145 -0.551964 -0.149788 -1.11985 1.09293 -0.131049 0.0898161 33.4639 -2.22392 3.33907 -3.02275 -1.75275 15.5054 -15.7538 -13.9342 -12.9498 44.0567 110.691 -6.36111e-015 -1.31198e-014 2.38542e-015 -20.4964 32.1429 14.285 -7.08252e-006 4.52286e-006 -3.0047 8.03012 -4.95137 0.69762 -15.9864 -11.6955 8.29847 12.9747 43.4518 -101.795 2.22639e-014 -1.70955e-014 -7.55382e-015 18.3221 30.4124 -12.0326 1.22538e-005 -2.00866e-006 3.00049 -8.0315 -4.95134 -0.697585 170.981 -1.23114 0.495099 180 7.01529e-015 178.846 177.951 8.47683 179.567 -1.96154e-006 -5.43848e-006 0.215265 -20.8714 70.3687 21.7504 8.14343 25.3421 -3.34113 -175.383 -0.61056 1.63528 4.5067e-006 -1.99009e-005 -1.14357 -1.37869 -4.59025 0.0861466 -4.48504e-006 -8.75613e-006 -0.0322169 18.6492 67.9373 -19.4825 -8.13649 25.2327 3.48774 
54.2813 95.6555 11.4333 1.881 -2.02618 4.60275 -0.561325 -2.27907 -0.101167 -1.12473 -0.554865 -0.15187 -1.12311 1.09002 -0.133078 0.110665 33.4597 -2.21892 3.30046 -2.99737 -1.74423 15.6085 -15.73 -13.8869 -12.6872 44.0652 110.424 -6.36111e-015 -1.59028e-015 1.59028e-015 -20.4497 32.0859 14.2286 -7.08252e-006 4.52286e-006 -3.0047 8.03012 -4.95137 0.69762 -16.0746 -11.6662 8.25559 12.7495 43.4214 -101.461 1.59028e-014 -4.77083e-015 2.78299e-015 18.2048 30.236 -11.9029 1.22538e-005 -2.00866e-006 3.00049 -8.0315 -4.95134 -0.697585 170.976 -1.22361 0.499031 180 7.01529e-015 178.846 177.949 8.47915 179.567 -1.96154e-006 -5.43848e-006 0.215122 -20.8689 70.3665 21.7476 8.14344 25.3421 -3.34108 -175.388 -0.607199 1.63881 4.5067e-006 -1.99009e-005 -1.14366 -1.37784 -4.58844 0.0864319 -4.48504e-006 -8.75613e-006 -0.032244 18.6518 67.9371 -19.483 -8.13649 25.2327 3.48774 
54.2785 95.6558 11.4459 1.88538 -2.02002 4.60309 -0.563251 -2.28106 -0.102713 -1.12922 -0.558847 -0.154899 -1.12756 1.08604 -0.136033 0.135322 33.4509 -2.21295 3.25439 -2.9621 -1.73434 15.7149 -15.7104 -13.8451 -12.428 44.0754 110.157 1.32417e-030 1.59028e-014 -4.77083e-015 -20.4016 32.0147 14.1665 -7.08252e-006 4.52286e-006 -3.0047 8.03012 -4.95137 0.69762 -16.1661 -11.6373 8.21323 12.5267 43.3891 -101.127 2.22639e-014 -1.59028e-015 -0 18.0859 30.0558 -11.7715 1.22538e-005 -2.00866e-006 3.00049 -8.0315 -4.95134 -0.697585 170.967 -1.21247 0.50529 180 7.01529e-015 178.846 177.945 8.48357 179.568 -1.96154e-006 -5.43848e-006 0.214958 -20.8674 70.3652 21.7457 8.14343 25.3421 -3.34112 -175.396 -0.601155 1.64496 4.5067e-006 -1.99009e-005 -1.14376 -1.37641 -4.58514 0.0867915 -4.48504e-006 -8.75613e-006 -0.0322711 18.6557 67.9368 -19.4835 -8.13649 25.2327 3.48774 
54.283 95.657 11.4269 1.8917 -2.01138 4.60541 -0.565617 -2.28354 -0.104676 -1.13473 -0.563768 -0.158747 -1.13303 1.08112 -0.13979 0.162828 33.4385 -2.20607 3.20261 -2.91881 -1.72328 15.8244 -15.6943 -13.8077 -12.1709 44.087 109.889 -9.54166e-015 -1.86858e-014 1.59028e-015 -20.3521 31.9306 14.0994 -7.08252e-006 4.52286e-006 -3.0047 8.03012 -4.95137 0.69762 -16.2607 -11.6086 8.17108 12.3052 43.3548 -100.792 1.59028e-014 1.23246e-014 1.59028e-015 17.9657 29.8722 -11.6386 1.22538e-005 -2.00866e-006 3.00049 -8.0315 -4.95134 -0.697585 170.956 -1.19824 0.513504 180 7.01529e-015 178.846 177.942 8.48971 179.569 -1.96154e-006 -5.43848e-006 0.214775 -20.8665 70.3647 21.7447 8.14343 25.3421 -3.34124 -175.407 -0.592789 1.65332 4.5067e-006 -1.99009e-005 -1.14385 -1.37447 -4.58058 0.0872139 -4.48504e-006 -8.75613e-006 -0.0322982 18.6606 67.9364 -19.4837 -8.13649 25.2327 3.48774 
54.284 95.6568 11.4254 1.8996 -2.00065 4.60931 -0.568345 -2.28641 -0.106994 -1.14109 -0.569487 -0.163287 -1.13934 1.0754 -0.144223 0.192223 33.4233 -2.19833 3.14686 -2.86941 -1.71125 15.9369 -15.681 -13.7738 -11.9146 44.0998 109.618 -6.36111e-015 1.19271e-015 7.95139e-016 -20.3013 31.835 14.0275 -7.08252e-006 4.52286e-006 -3.0047 8.03012 -4.95137 0.69762 -16.3582 -11.5799 8.12887 12.0845 43.3186 -100.455 2.54444e-014 -1.15295e-014 -2.38542e-015 17.8443 29.6856 -11.5045 1.22538e-005 -2.00866e-006 3.00049 -8.0315 -4.95134 -0.697585 170.942 -1.18143 0.523301 180 7.01529e-015 178.846 177.937 8.49717 179.569 -1.96154e-006 -5.43848e-006 0.214572 -20.8664 70.3648 21.7444 8.14342 25.3419 -3.34144 -175.42 -0.582459 1.66348 4.5067e-006 -1.99009e-005 -1.14395 -1.37214 -4.57502 0.0876875 -4.48504e-006 -8.75613e-006 -0.0323253 18.6664 67.936 -19.4839 -8.13649 25.2327 3.48774 
54.2517 95.657 11.4639 1.9087 -1.98822 4.61442 -0.571358 -2.28963 -0.109601 -1.14811 -0.575863 -0.168391 -1.14629 1.06902 -0.14921 0.222548 33.4063 -2.18981 3.0889 -2.81578 -1.69845 16.0521 -15.6696 -13.7425 -11.6577 44.1134 109.342 3.18055e-015 1.07344e-014 -1.03368e-014 -20.2492 31.7292 13.9515 -7.08252e-006 4.52286e-006 -3.0047 8.03012 -4.95137 0.69762 -16.4585 -11.5509 8.08628 11.8636 43.2806 -100.116 2.8625e-014 1.47101e-014 -3.18055e-015 17.7218 29.4965 -11.3696 1.22538e-005 -2.00866e-006 3.00048 -8.0315 -4.95134 -0.697585 170.926 -1.16258 0.53431 180 7.01528e-015 178.846 177.932 8.50564 179.571 -1.96154e-006 -5.43848e-006 0.214349 -20.8667 70.3653 21.7445 8.14341 25.3418 -3.3417 -175.435 -0.570525 1.67503 4.5067e-006 -1.99009e-005 -1.14405 -1.36948 -4.56868 0.0882008 -4.48504e-006 -8.75613e-006 -0.0323523 18.6729 67.9355 -19.4839 -8.13649 25.2327 3.48774 
54.2595 95.6563 11.4499 1.91864 -1.9745 4.62034 -0.574577 -2.2931 -0.112433 -1.15561 -0.582755 -0.173931 -1.15372 1.06212 -0.154624 0.252844 33.3884 -2.18057 3.03049 -2.75981 -1.68508 16.1697 -15.6596 -13.7129 -11.3989 44.1275 109.063 -9.54166e-015 1.98785e-014 -3.97569e-015 -20.1957 31.6144 13.8718 -7.08252e-006 4.52286e-006 -3.0047 8.03012 -4.95137 0.69762 -16.5614 -11.5213 8.04303 11.6418 43.2406 -99.7745 9.54166e-015 1.19271e-015 2.38542e-015 17.5984 29.3051 -11.234 1.22538e-005 -2.00866e-006 3.00048 -8.0315 -4.95134 -0.697585 170.908 -1.1422 0.546157 180 7.01528e-015 178.845 177.926 8.51473 179.572 -1.96154e-006 -5.43848e-006 0.214106 -20.8673 70.3661 21.745 8.1434 25.3416 -3.34203 -175.451 -0.557345 1.68757 4.5067e-006 -1.99009e-005 -1.14414 -1.36661 -4.56181 0.0887421 -4.48504e-006 -8.75613e-006 -0.0323794 18.6798 67.935 -19.4839 -8.13649 25.2327 3.48774 
54.2491 95.6593 11.4772 1.92904 -1.95988 4.6267 -0.577925 -2.29676 -0.115427 -1.1634 -0.590022 -0.179779 -1.16144 1.05485 -0.160341 0.282151 33.3706 -2.17066 2.97337 -2.70339 -1.67133 16.2896 -15.6502 -13.6839 -11.1369 44.1419 108.777 6.36111e-015 -3.18055e-015 4.77083e-015 -20.141 31.492 13.7889 -7.08252e-006 4.52286e-006 -3.0047 8.03012 -4.95137 0.69762 -16.6667 -11.491 7.99882 11.4183 43.1986 -99.4305 1.27222e-014 -1.23246e-014 -2.38542e-015 17.4741 29.112 -11.0982 1.22538e-005 -2.00866e-006 3.00048 -8.0315 -4.95134 -0.697585 170.89 -1.12082 0.558472 180 7.01528e-015 178.845 177.92 8.52409 179.573 -1.96154e-006 -5.43848e-006 0.213844 -20.8681 70.367 21.7456 8.14339 25.3414 -3.3424 -175.468 -0.54328 1.70068 4.5067e-006 -1.99009e-005 -1.14424 -1.36361 -4.55465 0.0893 -4.48504e-006 -8.75613e-006 -0.0324064 18.6869 67.9344 -19.4838 -8.13649 25.2327 3.48774 
